<?xml version="1.0" encoding="UTF-8"?>
<!DOCTYPE svg PUBLIC "-//W3C//DTD SVG 1.1//EN" "http://www.w3.org/Graphics/SVG/1.1/DTD/svg11.dtd">
<svg xmlns="http://www.w3.org/2000/svg" version="1.1" width="683px" height="710px" style="shape-rendering:geometricPrecision; text-rendering:geometricPrecision; image-rendering:optimizeQuality; fill-rule:evenodd; clip-rule:evenodd" xmlns:xlink="http://www.w3.org/1999/xlink">
<g><path style="opacity:0.958" fill="#714525" d="M 495.5,-0.5 C 495.833,-0.5 496.167,-0.5 496.5,-0.5C 500.331,1.44097 503.997,1.44097 507.5,-0.5C 507.833,-0.5 508.167,-0.5 508.5,-0.5C 510.167,0.833333 511.833,0.833333 513.5,-0.5C 513.833,-0.5 514.167,-0.5 514.5,-0.5C 520.734,0.781807 527.067,1.78181 533.5,2.5C 567.468,3.46785 599.135,13.9679 628.5,34C 650.836,52.8479 667.17,75.1812 677.5,101C 677.167,101.333 676.833,101.667 676.5,102C 679.126,106.459 680.126,111.126 679.5,116C 680.992,121.839 681.992,127.672 682.5,133.5C 682.5,133.833 682.5,134.167 682.5,134.5C 681.167,135.167 681.167,135.833 682.5,136.5C 682.5,139.833 682.5,143.167 682.5,146.5C 681.167,147.5 681.167,148.5 682.5,149.5C 682.5,150.5 682.5,151.5 682.5,152.5C 681.167,154.167 681.167,155.833 682.5,157.5C 682.5,157.833 682.5,158.167 682.5,158.5C 681.522,158.811 680.855,159.478 680.5,160.5C 680.413,165.139 680.413,169.806 680.5,174.5C 677.506,189.47 673.673,204.47 669,219.5C 661.082,239.709 651.082,258.709 639,276.5C 620.376,299.459 599.543,319.959 576.5,338C 557.673,351.02 540.839,348.853 526,331.5C 524.632,328.262 524.299,324.928 525,321.5C 527.195,314.778 530.195,308.444 534,302.5C 545.721,287.113 557.054,271.446 568,255.5C 573.401,245.701 579.068,236.035 585,226.5C 594.264,208.119 600.764,188.785 604.5,168.5C 603.877,164.687 604.211,160.854 605.5,157C 605.276,152.664 605.276,148.331 605.5,144C 604.07,137.256 602.904,130.422 602,123.5C 599.96,117.792 597.46,112.292 594.5,107C 594.957,106.586 595.291,106.086 595.5,105.5C 584.573,82.7343 567.239,67.2343 543.5,59C 509.488,48.0045 476.821,51.0045 445.5,68C 426.159,79.6749 409.659,94.5083 396,112.5C 385.969,127.546 376.302,142.879 367,158.5C 346.986,203.041 331.486,249.041 320.5,296.5C 310.071,344.914 300.404,394.414 291.5,445C 290.088,448.704 289.088,452.538 288.5,456.5C 289.61,458.496 289.276,460.329 287.5,462C 287.957,462.414 288.291,462.914 288.5,463.5C 286.195,469.982 284.529,476.649 283.5,483.5C 283.608,484.442 283.941,485.275 284.5,486C 281.861,496.225 279.528,506.558 277.5,517C 277.735,517.873 278.069,518.707 278.5,519.5C 276.405,523.223 275.739,527.056 276.5,531C 274.408,533.802 273.741,536.802 274.5,540C 273.592,543.983 272.258,547.816 270.5,551.5C 269.265,561.441 264.599,569.941 256.5,577C 254.007,576.993 251.507,577.826 249,579.5C 242.861,579.481 236.694,578.648 230.5,577C 214.055,569.554 201.888,557.721 194,541.5C 192.667,540.167 191.333,538.833 190,537.5C 190.782,522.528 192.949,507.528 196.5,492.5C 196.013,491.554 195.68,490.554 195.5,489.5C 199.975,470.689 202.642,451.856 203.5,433C 205.003,429.675 206.003,426.175 206.5,422.5C 205.529,421.038 205.862,419.705 207.5,418.5C 207.069,417.707 206.735,416.873 206.5,416C 208.167,406.999 209.834,397.999 211.5,389C 210.3,387.297 210.633,385.797 212.5,384.5C 212.069,383.707 211.735,382.873 211.5,382C 213.413,373.34 214.913,364.84 216,356.5C 216.713,348.433 217.88,340.433 219.5,332.5C 219.392,331.558 219.059,330.725 218.5,330C 224.06,305.228 229.394,280.062 234.5,254.5C 234.291,253.914 233.957,253.414 233.5,253C 239.44,235.166 244.606,216.999 249,198.5C 252.601,190.031 255.601,181.365 258,172.5C 262.447,164.487 266.113,156.154 269,147.5C 274.932,139.37 279.932,130.704 284,121.5C 294.685,108.477 305.018,95.1432 315,81.5C 355.813,38.9573 404.146,13.2907 460,4.5C 463.685,3.51897 467.352,2.51897 471,1.5C 475.803,1.46975 480.636,1.46975 485.5,1.5C 488.971,0.902711 492.305,0.236044 495.5,-0.5 Z"/></g>
<g><path style="opacity:0.004" fill="#714525" d="M 305.5,89.5 C 306.833,90.1667 306.833,90.1667 305.5,89.5 Z"/></g>
<g><path style="opacity:0.004" fill="#714525" d="M 372.5,166.5 C 373.833,167.167 373.833,167.167 372.5,166.5 Z"/></g>
<g><path style="opacity:0.005" fill="#714525" d="M 372.5,167.5 C 372.5,168.833 371.833,169.5 370.5,169.5C 370.5,168.167 371.167,167.5 372.5,167.5 Z"/></g>
<g><path style="opacity:0.953" fill="#282928" d="M 189.5,709.5 C 188.5,709.5 187.5,709.5 186.5,709.5C 184.833,708.167 183.167,708.167 181.5,709.5C 181.167,709.5 180.833,709.5 180.5,709.5C 179.5,708.167 178.5,708.167 177.5,709.5C 176.5,709.5 175.5,709.5 174.5,709.5C 172.657,708.717 170.657,708.05 168.5,707.5C 162.311,708.598 156.144,708.265 150,706.5C 134.603,707.187 119.77,704.187 105.5,697.5C 104.707,697.931 103.873,698.265 103,698.5C 66.328,685.018 37.328,662.018 16,629.5C 7.52725,609.641 2.02725,588.975 -0.5,567.5C -0.5,566.833 -0.5,566.167 -0.5,565.5C 0.833333,564.833 0.833333,564.167 -0.5,563.5C -0.5,560.167 -0.5,556.833 -0.5,553.5C 0.833333,552.5 0.833333,551.5 -0.5,550.5C -0.5,549.5 -0.5,548.5 -0.5,547.5C 0.833333,546.5 0.833333,545.5 -0.5,544.5C -0.5,543.5 -0.5,542.5 -0.5,541.5C 5.43852,506.125 21.1052,475.625 46.5,450C 58.2818,439.542 70.6151,429.876 83.5,421C 102.392,414.552 118.558,418.719 132,433.5C 133.303,435.94 134.47,438.44 135.5,441C 133.92,448.66 131.087,455.827 127,462.5C 111.235,485.37 97.5684,509.37 86,534.5C 73.5722,573.45 80.7389,608.283 107.5,639C 114.244,645.409 121.578,651.076 129.5,656C 138.203,659.127 146.703,662.627 155,666.5C 156.412,665.077 157.579,665.244 158.5,667C 170.23,668.534 181.73,670.034 193,671.5C 199.253,670.643 205.587,669.309 212,667.5C 212.561,668.022 213.228,668.355 214,668.5C 240.105,663.285 262.105,649.952 280,628.5C 284,622.5 288,616.5 292,610.5C 296.819,600.193 302.153,590.193 308,580.5C 311.826,568.54 315.659,556.54 319.5,544.5C 315.391,541.341 316.058,539.341 321.5,538.5C 326.866,524.8 330.366,510.8 332,496.5C 333.563,492.184 335.063,487.851 336.5,483.5C 336.392,482.558 336.059,481.725 335.5,481C 346.407,432.967 356.24,385.133 365,337.5C 371.147,314.093 375.98,290.593 379.5,267C 385.11,243.062 391.277,219.229 398,195.5C 400.194,192.446 401.861,189.112 403,185.5C 404.29,183.208 405.957,181.208 408,179.5C 407.021,177.721 407.354,176.055 409,174.5C 409.333,175.167 409.667,175.833 410,176.5C 417.468,168.889 426.301,166.389 436.5,169C 443.057,171.885 449.39,175.219 455.5,179C 458.553,182.264 461.719,185.43 465,188.5C 466.572,192.641 468.905,196.308 472,199.5C 475.225,206.95 478.725,214.283 482.5,221.5C 466.383,286.051 451.716,351.384 438.5,417.5C 438.833,418.167 439.167,418.833 439.5,419.5C 437.818,422.059 436.818,424.893 436.5,428C 436.645,428.772 436.978,429.439 437.5,430C 433.546,446.764 429.713,463.598 426,480.5C 425.5,481 425,481.5 424.5,482C 424.695,485.04 424.695,488.04 424.5,491C 422.479,493.043 422.146,495.043 423.5,497C 422.02,499.559 420.687,502.226 419.5,505C 420.022,505.561 420.355,506.228 420.5,507C 411.606,545.506 397.939,582.006 379.5,616.5C 352.808,656.279 316.808,682.613 271.5,695.5C 255.463,701.32 239.63,704.654 224,705.5C 222.441,706.029 220.941,706.696 219.5,707.5C 216.968,707.086 214.468,706.752 212,706.5C 210.559,707.26 209.059,707.926 207.5,708.5C 202.189,708.557 196.856,708.224 191.5,707.5C 190.478,707.855 189.811,708.522 189.5,709.5 Z"/></g>
<g><path style="opacity:0.01" fill="#714525" d="M 370.5,169.5 C 370.649,170.552 370.483,171.552 370,172.5C 367.554,175.287 365.054,177.953 362.5,180.5C 361.41,179.609 361.41,178.609 362.5,177.5C 364.804,175.569 366.638,173.236 368,170.5C 368.671,169.748 369.504,169.414 370.5,169.5 Z"/></g>
<g><path style="opacity:0.004" fill="#282928" d="M 306.5,568.5 C 307.525,568.897 307.692,569.563 307,570.5C 306.536,569.906 306.369,569.239 306.5,568.5 Z"/></g>
<g><path style="opacity:0.004" fill="#282928" d="M 304.5,572.5 C 304.897,571.475 305.563,571.308 306.5,572C 305.906,572.464 305.239,572.631 304.5,572.5 Z"/></g>
</svg>
