<?xml version="1.0" standalone="no"?>
<!DOCTYPE svg PUBLIC "-//W3C//DTD SVG 20010904//EN"
 "http://www.w3.org/TR/2001/REC-SVG-20010904/DTD/svg10.dtd">
<svg version="1.0" xmlns="http://www.w3.org/2000/svg"
 width="681.000000pt" height="728.000000pt" viewBox="0 0 681.000000 728.000000"
 preserveAspectRatio="xMidYMid meet">

<g transform="translate(0.000000,728.000000) scale(0.100000,-0.100000)"
fill="#000000" stroke="none">
<path d="M4926 7193 c-1 -1 -37 -3 -81 -4 -115 -3 -300 -25 -448 -54 -438 -86
-899 -328 -1206 -634 -229 -230 -308 -342 -490 -706 -128 -255 -226 -619 -261
-965 -6 -58 -15 -139 -21 -180 -27 -200 -36 -778 -20 -1265 6 -154 15 -455 21
-670 6 -214 15 -529 21 -700 l11 -310 61 -65 c146 -157 290 -231 445 -232 88
-1 164 30 185 75 23 51 45 137 51 202 3 33 8 465 11 960 5 792 17 1417 29
1525 4 33 8 94 22 345 3 55 16 163 30 240 13 77 28 169 34 205 15 104 69 380
85 437 37 128 190 506 247 607 66 120 160 258 217 320 49 52 182 163 256 213
188 127 421 190 665 180 138 -5 210 -21 331 -72 260 -112 447 -352 522 -669
18 -75 21 -121 21 -266 0 -155 -4 -191 -31 -320 -43 -206 -116 -400 -288 -760
-103 -216 -141 -314 -151 -389 -6 -49 -5 -52 32 -89 81 -80 220 -104 324 -56
126 58 408 414 571 719 82 153 170 434 198 633 30 207 34 303 22 457 -37 452
-123 655 -384 904 -219 209 -394 296 -717 355 -108 20 -305 38 -314 29z"/>
<path d="M3997 5457 c-85 -27 -148 -116 -182 -258 -16 -68 -39 -462 -50 -844
-3 -121 -8 -242 -10 -270 -5 -52 -23 -798 -30 -1270 -8 -539 -26 -776 -91
-1210 -15 -101 -84 -342 -140 -490 -50 -132 -160 -301 -252 -387 -168 -157
-379 -258 -613 -293 -349 -53 -658 34 -885 248 -213 201 -310 462 -285 768 15
184 88 432 204 694 57 128 97 255 97 307 0 36 -6 47 -43 83 -63 60 -149 90
-257 90 -112 -1 -148 -19 -270 -144 -168 -170 -328 -408 -390 -579 -135 -374
-114 -725 66 -1111 149 -319 405 -526 816 -660 186 -60 232 -66 508 -66 280 1
375 13 675 90 149 39 209 58 377 120 164 61 478 248 609 362 155 136 277 295
376 488 127 251 203 532 238 881 8 82 17 163 20 179 14 91 44 947 45 1285 0
115 15 593 25 810 6 125 18 345 35 622 l10 177 -35 48 c-19 26 -55 76 -80 110
-121 168 -339 266 -488 220z"/>
</g>
</svg>
